<svg width="26" height="26" viewBox="0 0 26 26" fill="none" xmlns="http://www.w3.org/2000/svg">
<path fill-rule="evenodd" clip-rule="evenodd" d="M1.69583 0.416852C1.41769 -0.0103073 0.833478 -0.13094 0.416268 0.156928C-0.0102127 0.435511 -0.130767 1.02054 0.156644 1.43841L1.92761 4.10351L4.60692 14.1696C5.293 16.7604 7.64785 18.5712 10.3273 18.5712H22.2503C22.7602 18.5712 23.1774 18.1533 23.1774 17.6426C23.1774 17.1318 22.7602 16.714 22.2503 16.714H10.3273C8.87166 16.714 7.55534 15.9339 6.83218 14.7267L22.5006 13.1296C23.7152 13.0088 24.6978 12.1174 24.9482 10.9288L25.9402 6.13711C26.3018 4.4099 24.9761 2.78485 23.2145 2.78485H3.28119L1.69583 0.416852ZM6.19228 12.9253L3.98582 4.64206H23.2145C23.8079 4.64206 24.2436 5.18061 24.1231 5.75635L23.131 10.548C23.0476 10.9473 22.7232 11.2445 22.3152 11.2816L6.19228 12.9253Z" fill="#003B46"/>
<path fill-rule="evenodd" clip-rule="evenodd" d="M5.56189 23.2142C5.56189 21.6727 6.80425 20.4284 8.34329 20.4284C9.88233 20.4284 11.1247 21.6727 11.1247 23.2142C11.1247 24.7557 9.88233 26 8.34329 26C6.80425 26 5.56189 24.7557 5.56189 23.2142ZM8.34329 22.2856C7.83336 22.2856 7.41615 22.7034 7.41615 23.2142C7.41615 23.7249 7.83336 24.1428 8.34329 24.1428C8.85321 24.1428 9.27042 23.7249 9.27042 23.2142C9.27042 22.7034 8.85321 22.2856 8.34329 22.2856Z" fill="#003B46"/>
<path fill-rule="evenodd" clip-rule="evenodd" d="M17.6146 23.2142C17.6146 21.6727 18.857 20.4284 20.396 20.4284C21.9351 20.4284 23.1774 21.6727 23.1774 23.2142C23.1774 24.7557 21.9351 26 20.396 26C18.857 26 17.6146 24.7557 17.6146 23.2142ZM20.396 22.2856C19.8861 22.2856 19.4689 22.7034 19.4689 23.2142C19.4689 23.7249 19.8861 24.1428 20.396 24.1428C20.9059 24.1428 21.3232 23.7249 21.3232 23.2142C21.3232 22.7034 20.9059 22.2856 20.396 22.2856Z" fill="#003B46"/>
</svg>
