<svg width="28" height="26" viewBox="0 0 28 26" fill="none" xmlns="http://www.w3.org/2000/svg">
<path fill-rule="evenodd" clip-rule="evenodd" d="M24.4785 3.63519C22.2731 1.35585 18.6965 1.35585 16.4911 3.63519L14.6608 5.52544C14.4853 5.70648 14.2473 5.80762 14 5.80762C13.7527 5.80762 13.5147 5.70648 13.3402 5.52544L11.5089 3.63519C9.30346 1.35585 5.72695 1.35585 3.52148 3.63519C1.31509 5.91356 1.31509 9.6094 3.52148 11.8887C3.52988 11.8974 3.53923 11.907 3.54763 11.9157L14 23.6167L24.4524 11.9157C24.4608 11.907 24.4701 11.8974 24.4785 11.8887C26.6849 9.6094 26.6849 5.91356 24.4785 3.63519ZM15.1704 2.27356C18.1048 -0.757852 22.8639 -0.757852 25.7992 2.27356C28.7289 5.30015 28.7336 10.2036 25.8132 13.235L14.686 25.6899C14.5096 25.8873 14.2604 26 14 26C13.7396 26 13.4904 25.8873 13.314 25.6899L2.18683 13.235C-0.733572 10.2036 -0.728949 5.30015 2.20078 2.27356C5.13611 -0.757852 9.89518 -0.757852 12.8296 2.27356L14 3.48208L15.1704 2.27356Z" fill="#003B46"/>
</svg>
