<svg width="102" height="101" viewBox="0 0 102 101" fill="none" xmlns="http://www.w3.org/2000/svg">
<path fill-rule="evenodd" clip-rule="evenodd" d="M38.8139 50.3589C47.236 68.0692 76.9715 68.2074 76.9715 68.2074L35.2044 68.4679L37.0951 74.3974C37.0951 74.3974 38.1462 76.2927 39.3295 76.9615C40.5566 77.6551 42.939 77.6025 42.939 77.6025H86.7687C86.7687 77.6025 89.5188 78.0833 89.5188 81.1282C89.5188 84.1731 86.7687 84.1731 86.7687 84.1731H40.017C40.017 84.1731 36.572 83.697 34.6887 82.4102C32.7061 81.0555 31.0792 77.6025 31.0792 77.6025L14.5786 20.391H4.43762C4.43762 20.391 1 20.0705 1 16.8654C1 13.6602 4.09386 13.1795 4.09386 13.1795H17.1568C17.1568 13.1795 18.4658 13.3281 19.0475 13.8205C19.6032 14.2908 19.9069 15.423 19.9069 15.423L22.8289 25.3589H36.5794C36.5794 25.3589 34.9054 32.5681 35.2044 37.2179C35.5444 42.5059 36.437 45.3608 38.8139 50.3589Z" fill="#003B46"/>
<path d="M89.8626 65.4231L100.691 30.0064C100.691 30.0064 101.386 27.8721 100.691 26.8013C99.9289 25.627 97.2535 25.3589 97.2535 25.3589H36.5794C36.5794 25.3589 34.9054 32.5681 35.2044 37.2179C35.5444 42.5059 36.437 45.3608 38.8139 50.3589C47.236 68.0692 76.9715 68.2074 76.9715 68.2074L86.5968 68.1474C86.5968 68.1474 88.3535 68.0523 89.0032 67.3461C89.6289 66.666 89.8626 65.4231 89.8626 65.4231Z" fill="#003B46"/>
<path d="M89.8626 65.4231L100.691 30.0064C100.691 30.0064 101.386 27.8721 100.691 26.8013C99.9289 25.627 97.2535 25.3589 97.2535 25.3589H36.5794C36.5794 25.3589 34.9054 32.5681 35.2044 37.2179C35.5444 42.5059 36.437 45.3608 38.8139 50.3589C47.236 68.0692 76.9715 68.2074 76.9715 68.2074L86.5968 68.1474C86.5968 68.1474 88.3535 68.0523 89.0032 67.3461C89.6289 66.666 89.8626 65.4231 89.8626 65.4231Z" fill="#07575B"/>
<path d="M76.9715 68.2074L86.5968 68.1474C86.5968 68.1474 88.3535 68.0523 89.0032 67.3461C89.6289 66.666 89.8626 65.4231 89.8626 65.4231L100.691 30.0064C100.691 30.0064 101.386 27.8721 100.691 26.8013C99.9289 25.627 97.2535 25.3589 97.2535 25.3589H36.5794M76.9715 68.2074C76.9715 68.2074 47.236 68.0692 38.8139 50.3589C36.437 45.3608 35.5444 42.5059 35.2044 37.2179C34.9054 32.5681 36.5794 25.3589 36.5794 25.3589M76.9715 68.2074L35.2044 68.4679L37.0951 74.3974C37.0951 74.3974 38.1462 76.2927 39.3295 76.9615C40.5566 77.6551 42.939 77.6025 42.939 77.6025H86.7687C86.7687 77.6025 89.5188 78.0833 89.5188 81.1282C89.5188 84.1731 86.7687 84.1731 86.7687 84.1731H40.017C40.017 84.1731 36.572 83.697 34.6887 82.4102C32.7061 81.0555 31.0792 77.6025 31.0792 77.6025L14.5786 20.391H4.43762C4.43762 20.391 1 20.0705 1 16.8654C1 13.6602 4.09386 13.1795 4.09386 13.1795H17.1568C17.1568 13.1795 18.4658 13.3281 19.0475 13.8205C19.6032 14.2908 19.9069 15.423 19.9069 15.423L22.8289 25.3589H36.5794" stroke="black"/>
<path d="M57.317 22.4095C60.5828 18.7236 66.9424 10.0698 66.9424 10.0698C66.9424 10.0698 59.5515 4.46082 55.5982 1.5762C54.0513 0.774952 53.5356 0.61476 53.3638 2.37749V9.26851C53.3638 9.26851 40.5977 15.3583 37.8945 29.1403C36.1431 38.0695 36.9244 45.2531 43.7384 51.7365C50.3073 57.9865 64.5361 58.307 64.5361 58.307L65.0517 52.3775C65.0517 52.3775 50.4418 52.3775 45.801 44.8454C38.582 30.7429 55.0826 18.2429 55.0826 18.2429C55.0826 18.2429 55.0314 22.1184 55.2545 22.4095C56.1139 23.5314 56.4651 23.3711 57.317 22.4095Z" fill="#003B46" stroke="black"/>
<path d="M67.0024 49.8377C67.0024 49.8377 76.1121 37.9788 76.4559 37.498C76.7996 37.0172 78.0028 36.6967 78.3466 37.498C78.6903 38.2993 79.0341 41.1839 79.0341 41.1839C79.0341 41.1839 83.8838 38.038 86.0812 35.2544C90.5221 29.6289 91.4095 25.4788 90.2064 17.7865C89.5188 14.5813 88.0969 11.6967 82.4717 9.77364C78.6482 8.46649 71.987 8.33133 70.9557 8.33133C70.44 7.04928 70.0963 4.80569 70.9557 2.72236C72.6745 2.24159 80.7529 3.36338 80.7529 3.36338C80.7529 3.36338 92.0971 5.28647 95.7066 15.0621C97.4254 20.1903 97.2552 26.4403 96.2222 31.4083C92.9565 47.1134 81.6123 50.7993 81.6123 50.7993C81.6123 50.7993 81.7842 56.248 81.6123 57.3698C81.4404 58.4916 79.8935 58.4916 79.0341 58.1711C78.1747 57.8506 67.0024 49.8377 67.0024 49.8377Z" fill="#66A5AD" stroke="black"/>
<path d="M45.0013 86.7564C49.1254 86.7564 52.4086 89.8657 52.4086 93.6285C52.4084 97.3911 49.1253 100.5 45.0013 100.5C40.8775 100.499 37.5952 97.391 37.5951 93.6285C37.5951 89.8658 40.8774 86.7565 45.0013 86.7564Z" fill="#66A5AD" stroke="black"/>
<path d="M77.315 86.7564C81.439 86.7564 84.7222 89.8657 84.7222 93.6285C84.722 97.3911 81.4389 100.5 77.315 100.5C73.1911 100.499 69.9089 97.391 69.9087 93.6285C69.9087 89.8658 73.191 86.7565 77.315 86.7564Z" fill="#66A5AD" stroke="black"/>
</svg>
