<svg width="23" height="26" viewBox="0 0 23 26" fill="none" xmlns="http://www.w3.org/2000/svg">
<path fill-rule="evenodd" clip-rule="evenodd" d="M6.58704 22.4138H2.49378C1.6085 22.4138 0.894439 22.0373 0.45656 21.4186C0.0377189 20.8269 -0.0669355 20.1007 0.0377747 19.4193C0.0853702 19.1055 0.209165 18.8456 0.323394 18.6483L2.52236 14.9634L3.07431 9.72756C3.13143 9.44963 3.2171 9.17177 3.31229 8.90281C3.4646 8.44557 3.71216 7.8179 4.09292 7.14549C4.76878 5.91722 5.89206 4.46479 7.69117 3.55031C7.71021 1.58686 9.40461 0 11.4988 0C13.593 0 15.2874 1.58686 15.3065 3.55031C17.1056 4.46479 18.2289 5.91722 18.9047 7.14549C19.2855 7.8179 19.533 8.44557 19.6853 8.90281C19.7615 9.13591 19.8185 9.32418 19.8566 9.45866C19.8852 9.56625 19.9043 9.66485 19.9328 9.77244V14.9634L22.5506 18.5138C22.7315 18.7648 22.9313 19.1145 22.9789 19.5359C23.0551 20.1993 22.9313 20.8986 22.503 21.4634C22.0651 22.0551 21.3606 22.4138 20.5039 22.4138H15.9156C15.4777 24.4579 13.5549 26 11.2513 26C8.94769 26 7.03444 24.4579 6.58704 22.4138ZM9.595 3.58621C9.595 2.6 10.4517 1.7931 11.4988 1.7931C12.5459 1.7931 13.4026 2.6 13.4026 3.58621V4.7069L13.9739 4.94001C15.5636 5.58553 16.582 6.82277 17.2198 7.97036C17.5339 8.53519 17.7433 9.06417 17.8766 9.44969C17.9527 9.68279 18.0005 9.86206 18.029 9.96068V15.5194L20.9893 19.5359C21.0655 19.6524 21.0846 19.7152 21.0846 19.7331C21.1227 20.0648 21.0464 20.3069 20.9512 20.4324C20.8751 20.5311 20.7609 20.6207 20.5039 20.6207H2.49378C2.23676 20.6207 2.11303 20.5311 2.03688 20.4235C1.94169 20.289 1.86542 20.0289 1.92254 19.6793C1.92254 19.6613 1.93212 19.6166 1.98924 19.5269L4.37854 15.5194L4.95908 10.0055C4.97812 9.92486 5.03539 9.72762 5.12106 9.44969C5.25433 9.06417 5.46369 8.53519 5.77782 7.97036C6.4156 6.82277 7.43407 5.58553 9.02376 4.94001L9.595 4.7069V3.58621ZM13.9453 22.4138H8.55733C8.95713 23.4628 10.0138 24.2069 11.2513 24.2069C12.4983 24.2069 13.555 23.4628 13.9453 22.4138Z" fill="#003B46"/>
</svg>
