<svg width="22" height="23" viewBox="0 0 22 23" fill="none" xmlns="http://www.w3.org/2000/svg">
<path fill-rule="evenodd" clip-rule="evenodd" d="M11 0C7.90722 0 5.40002 2.5072 5.40002 5.6C5.40002 8.6928 7.90722 11.2 11 11.2C14.0928 11.2 16.6 8.6928 16.6 5.6C16.6 2.5072 14.0928 0 11 0ZM7.00002 5.6C7.00002 3.3912 8.79122 1.6 11 1.6C13.2088 1.6 15 3.3912 15 5.6C15 7.8088 13.2088 9.6 11 9.6C8.79122 9.6 7.00002 7.8088 7.00002 5.6Z" fill="#66A5AD"/>
<path fill-rule="evenodd" clip-rule="evenodd" d="M4.28333 12.8C3.22733 12.8 2.16652 13.3288 1.65452 14.3616C1.23532 15.2064 0.72253 16.4624 0.61053 17.7616C0.52813 18.7232 0.928123 19.7136 1.81292 20.264C3.21372 21.1336 6.10013 22.4 11.0001 22.4C15.9001 22.4 18.7865 21.1336 20.1873 20.264C21.0721 19.7136 21.4721 18.7232 21.3897 17.7616C21.2777 16.4624 20.7649 15.2064 20.3457 14.3616C19.8337 13.3288 18.7729 12.8 17.7169 12.8H4.28333ZM3.08812 15.072C3.28812 14.668 3.73533 14.4 4.28333 14.4H17.7169C18.2649 14.4 18.7121 14.668 18.9121 15.072C19.2961 15.8464 19.7089 16.892 19.7953 17.8984C19.8337 18.3456 19.6473 18.7152 19.3433 18.9048C18.2017 19.6136 15.6089 20.8 11.0001 20.8C6.39133 20.8 3.79854 19.6136 2.65694 18.9048C2.35294 18.7152 2.16654 18.3456 2.20494 17.8984C2.29134 16.892 2.70412 15.8464 3.08812 15.072Z" fill="#66A5AD"/>
</svg>
