<svg width="26" height="26" viewBox="0 0 26 26" fill="none" xmlns="http://www.w3.org/2000/svg">
<path fill-rule="evenodd" clip-rule="evenodd" d="M25.0714 0.927845C25.0714 0.584263 24.8774 0.25924 24.5682 0.101378C24.258 -0.0564844 23.8866 -0.0286672 23.6034 0.175625L11.1559 9.06239L7.98571 6.68512C7.64121 6.42511 7.16486 6.44371 6.83429 6.713L1.26286 11.356C1.05115 11.5324 0.928589 11.7925 0.928589 12.071V20.4191C0.928589 20.9299 1.34459 21.3477 1.85716 21.3477H24.1429C24.6554 21.3477 25.0714 20.9299 25.0714 20.4191V0.927845ZM11.6824 10.9661L23.2143 2.72927V19.4905H2.78573V12.5075L7.45925 8.60738L10.5858 10.9568C10.9098 11.1982 11.3537 11.2075 11.6824 10.9661Z" fill="#003B46"/>
<path d="M0.928571 24.1428C0.416 24.1428 0 24.5607 0 25.0714C0 25.5821 0.416 26 0.928571 26H25.0714C25.584 26 26 25.5821 26 25.0714C26 24.5607 25.584 24.1428 25.0714 24.1428H0.928571Z" fill="#003B46"/>
<path d="M0.928571 24.1428C0.416 24.1428 0 24.5607 0 25.0714C0 25.5821 0.416 26 0.928571 26H25.0714C25.584 26 26 25.5821 26 25.0714C26 24.5607 25.584 24.1428 25.0714 24.1428H0.928571Z" fill="#003B46"/>
</svg>
