<svg width="24" height="24" viewBox="0 0 24 24" fill="none" xmlns="http://www.w3.org/2000/svg">
<path d="M14.5715 12C14.5715 11.0571 15.343 10.2857 16.2858 10.2857C17.2287 10.2857 18.0001 11.0571 18.0001 12C18.0001 12.9429 17.2287 13.7143 16.2858 13.7143C15.343 13.7143 14.5715 12.9429 14.5715 12Z" fill="#C4DFE6"/>
<path fill-rule="evenodd" clip-rule="evenodd" d="M24 19.7143C24 22.08 22.08 24 19.7143 24H4.28571C1.92 24 0 22.08 0 19.7143V4.28571C0 1.92 1.92 0 4.28571 0H19.7143C22.08 0 24 1.92 24 4.28571V19.7143ZM22.2857 6.85714V4.28571C22.2857 2.86286 21.1371 1.71429 19.7143 1.71429H4.28571C2.86286 1.71429 1.71429 2.86286 1.71429 4.28571V19.7143C1.71429 21.1371 2.86286 22.2857 4.28571 22.2857H19.7143C21.1371 22.2857 22.2857 21.1371 22.2857 19.7143V17.1429H15.4286C13.0629 17.1429 11.1429 15.2229 11.1429 12.8571V11.1429C11.1429 8.77714 13.0629 6.85714 15.4286 6.85714H22.2857ZM22.2857 8.57143H15.4286C14.0057 8.57143 12.8571 9.72 12.8571 11.1429V12.8571C12.8571 14.28 14.0057 15.4286 15.4286 15.4286H22.2857V8.57143Z" fill="#C4DFE6"/>
</svg>
